<?xml version="1.0" encoding="UTF-8" standalone="no"?><svg xmlns="http://www.w3.org/2000/svg" xmlns:xlink="http://www.w3.org/1999/xlink" fill="#ffffff" height="1199.9" preserveAspectRatio="xMidYMid meet" version="1" viewBox="486.4 367.7 1043.6 1199.9" width="1043.6" zoomAndPan="magnify"><g><g id="change1_1"><path d="M1421.2,731.8l-264-223.2c-15.4-13-33.6-16.7-40.8-8.3l-1.3,1.5c-7.1,8.4-0.4,25.8,15,38.8l39.6,33.5l-60.4,71.4 l63.4,53.6L1160,714l-63.4-53.6l-52,61.5l63.4,53.6l-12.7,15.1l-63.4-53.6l-52,61.5l63.4,53.6l-12.7,15.1l-63.4-53.6l-52,61.5 l63.4,53.6l-12.7,15.1l-63.4-53.6l-52,61.5l63.4,53.6l-12.7,15.1l-63.4-53.6l-52,61.5l63.4,53.6l-12.7,15.1l-63.4-53.6l-52,61.5 l63.4,53.6l-12.7,15.1l-63.4-53.6l-73.9,87.4l42.5,35.9l-73.1,86.4l43.2,36.5l-160.7,190l13.4,11.4l160.7-190l43.2,36.5l73.1-86.4 l42.5,35.9l535.5-633.3l39.6,33.5c15.4,13,33.6,16.7,40.8,8.3l1.3-1.5C1443.3,762.1,1436.6,744.8,1421.2,731.8z"/><path d="M1523.3,548.9l-208.2-176.1c-6-5.1-15-4.3-20,1.7c-5.1,6-4.3,15,1.7,20l39,33l-88.7,104.9l130.1,110.1l88.7-104.9l39,33 c6,5.1,15,4.3,20-1.7C1530,563,1529.3,554,1523.3,548.9z"/></g></g></svg>