<?xml version="1.0" encoding="UTF-8" standalone="no"?><svg xmlns="http://www.w3.org/2000/svg" xmlns:xlink="http://www.w3.org/1999/xlink" fill="#ffffff" height="464.2" preserveAspectRatio="xMidYMid meet" version="1" viewBox="-0.3 -1.0 500.6 464.2" width="500.6" zoomAndPan="magnify"><defs><clipPath id="a"><path d="M 67 175 L 423 175 L 423 463.121094 L 67 463.121094 Z M 67 175"/></clipPath></defs><g><g id="change1_1"><path d="M 86.386719 275.796875 C 87.492188 275.683594 88.601562 275.574219 89.707031 275.519531 C 101.78125 273.910156 112.417969 268.039062 120.558594 259.011719 C 127.152344 251.8125 131.472656 243.117188 133.964844 232.925781 C 136.066406 224.949219 136.457031 216.03125 135.128906 207.222656 C 133.132812 189.609375 126.210938 172.992188 114.410156 158.371094 C 110.699219 153.71875 106.433594 149.066406 101.617188 145.023438 C 90.871094 135.882812 79.847656 130.675781 67.941406 127.796875 C 60.074219 126.246094 52.765625 125.691406 45.121094 126.910156 C 33.046875 129.015625 22.910156 134.332031 14.765625 143.304688 C 8.175781 150.5625 3.414062 160.367188 1.527344 171.109375 C 0.3125 176.761719 -0.296875 182.355469 0.144531 187.894531 L 0.253906 189.554688 C 0.421875 191.21875 0.53125 192.878906 0.699219 194.539062 L 0.808594 196.144531 C 2.414062 208.832031 6.734375 220.683594 13.214844 231.816406 C 18.367188 240.289062 24.625 248.101562 31.828125 254.746094 C 42.019531 263.886719 53.097656 270.199219 65.003906 273.082031 C 72.480469 275.796875 79.738281 276.292969 86.386719 275.796875" fill="inherit"/></g><g id="change1_2"><path d="M 104.773438 106.417969 C 108.097656 119.710938 113.636719 131.339844 120.835938 141.3125 C 128.035156 151.28125 135.789062 158.480469 145.207031 164.019531 C 152.960938 169.007812 161.269531 171.777344 170.132812 172.328125 L 174.5625 172.328125 C 183.425781 172.328125 191.734375 170.113281 198.933594 165.128906 C 206.136719 161.253906 212.78125 155.160156 218.320312 147.957031 C 226.074219 137.988281 231.058594 125.804688 233.277344 111.402344 C 233.828125 105.308594 234.382812 99.214844 234.382812 92.570312 C 234.382812 87.585938 233.828125 82.601562 233.277344 77.613281 C 232.167969 68.753906 229.953125 60.445312 226.628906 52.136719 C 221.089844 38.289062 213.335938 26.65625 203.367188 17.796875 C 196.164062 11.148438 188.410156 6.164062 180.101562 3.394531 C 169.578125 -0.484375 159.054688 -1.035156 148.53125 1.730469 C 138.5625 3.945312 129.699219 9.484375 121.945312 17.796875 C 115.296875 24.996094 110.867188 32.75 106.988281 42.164062 C 103.113281 53.242188 100.894531 64.875 100.894531 78.167969 C 100.894531 80.382812 101.449219 82.601562 101.449219 85.921875 C 102.003906 92.570312 103.113281 99.769531 104.773438 106.417969" fill="inherit"/></g><g id="change1_3"><path d="M 262.078125 132.449219 C 265.953125 143.527344 271.492188 152.390625 279.246094 159.589844 C 289.21875 169.007812 300.851562 174.546875 314.144531 175.097656 L 317.46875 175.097656 C 324.113281 175.097656 330.207031 173.4375 336.851562 173.4375 C 346.269531 169.558594 354.578125 164.019531 362.886719 156.265625 C 371.195312 147.957031 377.839844 138.542969 382.824219 128.019531 C 390.027344 113.0625 393.902344 97.554688 394.457031 80.9375 C 394.457031 71.523438 393.902344 62.105469 391.6875 53.796875 C 388.917969 42.164062 385.039062 32.75 378.949219 24.441406 C 368.976562 10.59375 355.683594 2.839844 340.175781 0.625 C 339.621094 0.625 339.621094 0.625 339.066406 0.625 L 326.328125 0.625 C 319.128906 1.730469 311.375 3.945312 304.726562 7.824219 C 295.863281 12.808594 287.558594 20.011719 280.355469 28.871094 C 272.601562 38.289062 267.0625 49.367188 262.632812 61.550781 C 258.753906 72.628906 257.09375 84.261719 256.539062 95.894531 C 256.539062 100.878906 256.539062 105.863281 257.09375 110.847656 C 258.199219 118.601562 259.863281 125.804688 262.078125 132.449219" fill="inherit"/></g><g clip-path="url(#a)" id="change1_5"><path d="M 401.601562 319.664062 C 394.402344 309.140625 385.539062 299.171875 375.015625 290.308594 C 367.816406 283.660156 360.613281 276.460938 354.523438 268.707031 C 347.875 260.398438 341.78125 251.535156 336.796875 243.78125 L 332.921875 237.6875 C 329.042969 231.59375 325.164062 226.058594 321.289062 219.964844 C 315.195312 211.101562 309.65625 203.902344 303.5625 198.363281 C 293.039062 188.390625 280.855469 181.746094 267.007812 178.421875 C 258.144531 176.207031 248.730469 175.652344 239.867188 175.652344 C 231.558594 175.652344 223.25 177.3125 215.496094 180.636719 C 206.078125 184.515625 197.769531 190.609375 188.910156 198.914062 C 183.925781 203.902344 178.386719 209.992188 172.847656 217.195312 C 167.308594 224.394531 162.324219 231.59375 157.339844 238.796875 L 154.566406 243.226562 C 147.921875 252.089844 141.273438 262.058594 133.519531 270.921875 C 126.875 278.675781 120.78125 284.769531 114.6875 290.308594 C 106.933594 296.953125 99.179688 304.710938 93.085938 313.015625 C 84.222656 324.648438 77.578125 337.386719 73.148438 350.128906 C 70.378906 358.988281 68.714844 367.851562 68.160156 376.714844 C 67.609375 384.46875 68.160156 392.777344 69.824219 399.976562 C 74.253906 420.472656 84.777344 437.089844 101.949219 449.273438 C 111.917969 456.472656 122.996094 460.90625 135.734375 462.011719 C 137.398438 462.566406 138.507812 462.566406 140.167969 462.566406 L 148.476562 462.566406 C 153.460938 462.566406 158.445312 462.011719 162.324219 461.460938 C 173.402344 459.242188 184.476562 456.472656 194.449219 453.703125 L 195.003906 453.703125 C 204.417969 451.488281 213.835938 448.71875 223.25 447.058594 C 227.128906 446.503906 232.113281 445.394531 237.097656 445.394531 C 243.742188 445.394531 249.835938 445.394531 255.375 445.949219 C 263.128906 447.058594 271.992188 448.71875 281.40625 450.933594 C 285.839844 452.042969 290.824219 453.703125 295.257812 454.8125 C 301.347656 456.472656 307.996094 458.136719 314.640625 459.796875 C 321.289062 461.460938 328.488281 463.121094 336.242188 463.121094 L 349.535156 463.121094 C 350.644531 463.121094 351.199219 462.566406 352.304688 460.90625 C 355.628906 460.90625 359.507812 460.351562 362.828125 459.242188 C 371.691406 457.027344 380.554688 453.148438 388.863281 447.058594 C 399.941406 439.304688 408.804688 429.332031 414.34375 417.699219 C 420.433594 404.960938 423.203125 391.667969 422.648438 376.714844 C 422.097656 368.40625 420.433594 358.988281 417.109375 350.128906 C 413.789062 339.601562 408.804688 329.632812 401.601562 319.664062" fill="inherit"/></g><g id="change1_4"><path d="M 498.476562 171.109375 C 496.59375 160.367188 491.828125 150.5625 485.183594 143.304688 C 477.042969 134.332031 466.960938 129.015625 454.886719 126.910156 C 447.1875 125.691406 439.929688 126.246094 432.011719 127.796875 C 420.101562 130.675781 409.136719 135.882812 398.390625 145.023438 C 393.570312 149.066406 389.304688 153.71875 385.59375 158.371094 C 373.796875 172.992188 366.871094 189.609375 364.824219 207.222656 C 363.550781 216.03125 363.9375 224.949219 366.042969 232.925781 C 368.535156 243.117188 372.800781 251.8125 379.445312 259.011719 C 387.589844 268.039062 398.222656 273.910156 410.296875 275.519531 C 411.40625 275.574219 412.515625 275.683594 413.621094 275.796875 C 420.269531 276.292969 427.523438 275.796875 434.945312 273.082031 C 446.855469 270.199219 457.933594 263.886719 468.179688 254.746094 C 475.378906 248.101562 481.585938 240.289062 486.734375 231.816406 C 493.214844 220.683594 497.535156 208.832031 499.140625 196.144531 L 499.308594 194.539062 C 499.417969 192.878906 499.585938 191.21875 499.695312 189.554688 L 499.863281 187.894531 C 500.304688 182.355469 499.640625 176.761719 498.476562 171.109375" fill="inherit"/></g></g></svg>