<?xml version="1.0" encoding="UTF-8" standalone="no"?><svg xmlns="http://www.w3.org/2000/svg" xmlns:xlink="http://www.w3.org/1999/xlink" fill="#000000" height="443.2" preserveAspectRatio="xMidYMid meet" version="1" viewBox="49.5 56.8 450.5 443.2" width="450.5" zoomAndPan="magnify"><g id="change1_1"><path d="M 399.941406 303.058594 C 392.199219 291.179688 390.234375 253.113281 385.769531 228.09375 C 381.523438 204.261719 373.828125 181.226562 369.003906 157.523438 C 366.503906 145.238281 364.753906 132.757812 364.695312 120.203125 C 364.65625 111.285156 367.007812 99.027344 358.976562 92.605469 C 349.121094 84.71875 336.097656 94.488281 331.210938 103.285156 C 326.023438 112.625 324.542969 123.800781 323.9375 134.273438 C 323.113281 148.527344 326.574219 162.503906 327.703125 176.644531 C 330.652344 213.644531 279.273438 184.613281 267.117188 171.328125 C 254.847656 157.921875 243.425781 143.390625 231.339844 129.726562 C 223.519531 120.886719 217.039062 110.742188 208.625 102.386719 C 201.421875 95.230469 197.023438 88.15625 180.863281 72.457031 C 164.707031 56.753906 153.769531 58.804688 148.269531 63.023438 C 136.515625 72.046875 148.449219 89.226562 154.851562 97.617188 C 168.878906 116 183.679688 133.773438 197.550781 152.277344 C 203.425781 160.113281 209.484375 168.035156 214.324219 176.570312 C 216.332031 180.109375 222.359375 194.191406 210.691406 188.179688 C 207.125 186.34375 203.921875 182.398438 200.75 179.878906 C 186.285156 168.386719 172.117188 157.386719 156.308594 147.800781 C 138.890625 137.246094 123.863281 122.90625 105.113281 114.535156 C 96.667969 110.765625 86.554688 105.527344 77.875 110.574219 C 70.675781 114.761719 67.671875 124.652344 72.441406 131.605469 C 78.40625 140.308594 88.671875 146.726562 97.105469 152.652344 C 112.722656 163.628906 140.371094 185.59375 154.410156 196.75 C 168.453125 207.90625 191.699219 222.796875 188.640625 223.945312 C 185.582031 225.09375 174.261719 216.816406 170.402344 214.464844 C 166.542969 212.113281 138.832031 196.539062 122.257812 187.667969 C 105.683594 178.796875 91.023438 165.714844 77.351562 161.296875 C 63.683594 156.878906 60.015625 159.695312 55.921875 165.746094 C 49.515625 175.222656 61.628906 189.753906 68.261719 195.605469 C 76.546875 202.910156 86.832031 208.214844 95.484375 214.601562 C 112.398438 227.089844 128.160156 240.128906 146.777344 250.246094 C 149.984375 251.988281 185.253906 269.546875 179.96875 273.605469 C 174.46875 277.824219 156.679688 272.28125 149.414062 271.519531 C 142.144531 270.753906 113.410156 263.675781 93.449219 258.167969 C 73.484375 252.660156 60.757812 249.761719 56.25 262.640625 C 51.742188 275.523438 72.191406 284.925781 97.5 295.414062 C 122.8125 305.902344 143.324219 308.914062 171.800781 317.222656 C 178.773438 319.257812 185.4375 321.902344 191.8125 324.898438 L 203.765625 331.476562 C 211.921875 318.789062 219.761719 305.898438 216.417969 290.058594 C 214.554688 281.226562 213.410156 271.015625 219.640625 263.652344 C 226.3125 255.769531 236.367188 256.179688 244.199219 261.722656 C 245.640625 262.742188 247.648438 262.1875 248.339844 260.5625 C 248.84375 259.378906 249.371094 258.203125 250.074219 257.085938 C 256.8125 246.402344 267.753906 241.296875 278.652344 249.863281 C 283.847656 253.949219 285.640625 260.394531 286.066406 266.726562 C 291.558594 263.550781 297.914062 261.449219 304.199219 263.492188 C 317.382812 267.769531 319.238281 279.703125 314.117188 291.246094 C 313.582031 292.453125 312.902344 293.546875 312.195312 294.625 C 311.234375 296.101562 311.890625 298.078125 313.539062 298.707031 C 322.507812 302.128906 328.449219 310.246094 325.613281 320.183594 C 322.972656 329.453125 313.855469 334.191406 305.480469 337.5625 C 290.160156 343.734375 283.871094 357.859375 277.769531 371.980469 C 291.050781 378.320312 303.816406 384.265625 311.5625 388.175781 C 326.378906 395.652344 397.683594 500 397.683594 500 L 500 500 L 500 417.414062 C 500 417.414062 407.683594 314.9375 399.941406 303.058594" fill="#ffffff"/></g></svg>