<?xml version="1.0" encoding="UTF-8" standalone="no"?><svg xmlns="http://www.w3.org/2000/svg" xmlns:xlink="http://www.w3.org/1999/xlink" fill="#ffffff" height="134.2" preserveAspectRatio="xMidYMid meet" version="1" viewBox="-0.5 0.0 114.1 134.2" width="114.1" zoomAndPan="magnify"><g fill="none" fill-rule="evenodd"><g fill="#ffffff" fill-rule="nonzero" id="change1_1"><path d="M542.780208,3142.32907 C537.533382,3142.32907 533.424032,3136.54507 533.424032,3129.16193 C533.424032,3121.78116 537.533851,3116 542.780208,3116 C548.02938,3116 552.140606,3121.78163 552.140606,3129.16193 C552.140606,3136.54554 548.028911,3142.32907 542.780208,3142.32907 Z M519.320042,3148.62683 C516.817054,3143.14123 517.972483,3137.39493 521.9484,3135.53956 C522.758826,3135.1633 523.629686,3134.97312 524.540683,3134.97312 C528.039901,3134.97312 531.565734,3137.73661 533.522577,3142.01335 C536.027362,3147.49076 534.875086,3153.2357 530.900526,3155.09289 C530.086488,3155.47052 529.215628,3155.66024 528.304182,3155.66024 C524.804055,3155.66024 521.277784,3152.89947 519.320042,3148.62683 Z M563.217147,3142.32907 C557.968984,3142.32907 553.857917,3136.54507 553.857448,3129.16193 C553.857448,3121.78116 557.968984,3116 563.217147,3116 C568.463904,3116 572.574032,3121.78163 572.574032,3129.16193 C572.574032,3136.54554 568.463904,3142.32907 563.217147,3142.32907 Z M572.482043,3142.01182 C574.439615,3137.73683 577.962983,3134.97312 581.457501,3134.97312 C582.370913,3134.97312 583.243749,3135.16418 584.052119,3135.54178 C588.028585,3137.3979 589.182757,3143.14506 586.6792,3148.62472 C584.722077,3152.89971 581.196913,3155.66024 577.698343,3155.66024 C576.787177,3155.66024 575.916147,3155.47053 575.109124,3155.09613 C571.121391,3153.23227 569.970832,3147.48647 572.482043,3142.01182 Z M532.194737,3163.475 C532.586263,3162.82131 537.728057,3152.29805 542.39926,3148.04672 C546.327646,3144.47931 552.328276,3144.37636 552.999062,3144.37636 C553.672662,3144.37636 559.672354,3144.47931 563.598864,3148.04531 C568.271943,3152.29805 573.413737,3162.82083 573.805264,3163.475 C576.572164,3167.89022 578.267381,3170.76851 578.267381,3174.07568 C578.267381,3180.10433 573.926891,3184 567.210558,3184 L567.135714,3184 L567.060869,3184 C564.594764,3184 562.830311,3183.85972 559.12552,3181.91472 C559.098397,3181.90102 559.072201,3181.88591 559.045537,3181.87126 C559.025887,3181.8604 556.032119,3178.18149 553.177292,3178.3638 C553.058469,3178.37136 552.939655,3178.37136 552.822708,3178.3638 C549.970216,3178.18244 546.974113,3181.8604 546.946041,3181.87599 C546.924995,3181.88733 546.895526,3181.90385 546.87447,3181.91472 C543.169689,3183.85972 541.405236,3184 538.939121,3184 L538.789432,3184 C532.07264,3184 527.732619,3180.10433 527.732619,3174.07568 C527.732619,3170.76851 529.427837,3167.89069 532.194737,3163.475 Z M568.682001,3250.0119 C567.915693,3250.15399 567.136368,3250.21356 566.357368,3250.18961 C560.333773,3250.00442 555.600815,3244.9712 555.786008,3238.94761 L556.420896,3218.29732 C556.58023,3213.11483 558.703976,3208.18677 562.361709,3204.51192 L563.49388,3203.37445 C566.531149,3200.32296 569.368179,3197.07851 571.987259,3193.66135 L581.492237,3181.26003 C583.317684,3178.87833 586.69059,3178.34751 589.159331,3180.0534 C589.165024,3180.05733 589.17071,3180.06128 589.176388,3180.06523 C591.59478,3181.75026 592.189287,3185.07675 590.504256,3187.49514 L581.076146,3201.02656 L584.934841,3198.37192 C592.402395,3193.23451 596.811563,3184.70762 596.687005,3175.64441 L596.573235,3167.36615 C596.525855,3163.91868 599.266808,3161.07773 602.71376,3161.00159 C606.180909,3160.92501 609.080056,3163.62014 609.256232,3167.08365 L609.939459,3180.51552 C610.530843,3192.14181 606.666253,3203.55603 599.133396,3212.43164 L594.515551,3217.87262 C589.838129,3223.38381 586.481061,3229.89039 584.700375,3236.89615 C583.050608,3243.38682 577.776926,3248.32557 571.192099,3249.54649 L568.682001,3250.0119 Z M538.316555,3250.0119 L535.806458,3249.54649 C529.221631,3248.32557 523.947948,3243.38682 522.298182,3236.89615 C520.517495,3229.89039 517.160427,3223.38381 512.483005,3217.87262 L507.86516,3212.43164 C500.332303,3203.55603 496.467713,3192.14181 497.059097,3180.51552 L497.742324,3167.08365 C497.9185,3163.62014 500.817647,3160.92501 504.284796,3161.00159 C507.731748,3161.07773 510.472701,3163.91868 510.425322,3167.36615 L510.311552,3175.64441 C510.186994,3184.70762 514.596161,3193.23451 522.063715,3198.37192 L525.92241,3201.02656 L516.4943,3187.49514 C514.809269,3185.07675 515.403776,3181.75026 517.822169,3180.06523 C517.827846,3180.06128 517.833532,3180.05733 517.839225,3180.0534 C520.307966,3178.34751 523.680872,3178.87833 525.506319,3181.26003 L535.011298,3193.66135 C537.630377,3197.07851 540.467408,3200.32296 543.504676,3203.37445 L544.636847,3204.51192 C548.29458,3208.18677 550.418326,3213.11483 550.577661,3218.29732 L551.212548,3238.94761 C551.397742,3244.9712 546.664783,3250.00442 540.641189,3250.18961 C539.862188,3250.21356 539.082863,3250.15399 538.316555,3250.0119 Z" transform="translate(-497 -3116)"/></g></g></svg>