<?xml version="1.0" encoding="UTF-8" standalone="no"?><svg xmlns="http://www.w3.org/2000/svg" xmlns:xlink="http://www.w3.org/1999/xlink" fill="#000000" height="2296.9" preserveAspectRatio="xMidYMid meet" version="1" viewBox="556.5 810.9 2727.4 2296.9" width="2727.4" zoomAndPan="magnify"><g fill="#ffffff" id="change1_1"><path d="M1671.24,2492.82c45.41-35.83,83.72-81.12,113.88-134.61c27.26-48.36,66.88-88.96,114.57-117.43 c49.06-29.28,105.35-44.79,162.78-44.83l0.22,0l0.1,0l0.1,0c57.36,0.08,113.58,15.58,162.59,44.83 c47.69,28.47,87.3,69.07,114.57,117.43c30.16,53.49,68.47,98.78,113.88,134.61c45.28,35.73,73.16,89.14,76.5,146.54 c1.65,28.4-2.43,56.09-12.13,82.3c-9.36,25.28-23.52,48.08-42.08,67.75c-18.78,19.9-41.05,35.55-66.2,46.51 c-25.98,11.32-53.77,17.05-82.6,17.05c-52.5,0-93.61-10.17-133.37-20c-40.88-10.11-79.51-19.65-130.97-18.74l-0.73,0.01l-0.31-0.01 c-2.3-0.04-4.58-0.06-6.83-0.06c-48.1,0-85.11,9.15-124.19,18.82c-39.73,9.83-80.81,19.99-133.3,19.99 c-28.83,0-56.62-5.74-82.6-17.05c-25.15-10.96-47.43-26.6-66.2-46.51c-18.56-19.67-32.72-42.47-42.08-67.75 c-9.7-26.21-13.78-53.9-12.13-82.3C1598.08,2581.96,1625.96,2528.54,1671.24,2492.82z"/><path d="M1939.63,2147.97c-16.83,8.48-34.51,12.78-52.53,12.78c-2.09,0-4.22-0.06-6.34-0.18 c-20.23-1.12-39.45-7.53-57.11-19.04c-16.32-10.64-30.55-25.15-42.29-43.13c-22.99-35.21-34.21-80.48-31.6-127.49 c2.61-47.03,19.23-100.95,44.47-144.25c29.94-51.37,67.25-79.38,105.47-79.38c1.44,0,2.88,0.04,4.33,0.12 c39.74,2.21,75.28,34.52,100.06,90.99c20.06,45.71,30.48,101.1,27.87,148.18c-2.61,47.01-18.77,90.77-45.52,123.21 C1972.77,2126.36,1957.02,2139.21,1939.63,2147.97z"/><path d="M1497.48,2091.79c31.29-48.28,68.43-74.39,105.39-74.39c2.68,0,5.36,0.14,8.03,0.41 c39.59,4.08,73.56,38.04,95.65,95.62c17.88,46.6,25.66,102.43,20.83,149.33c-4.83,46.83-23.05,89.78-51.3,120.92 c-14.43,15.91-30.77,28-48.56,35.92c-19.19,8.55-39.28,11.88-59.4,9.8c-20.16-2.08-39.05-9.39-56.15-21.72 c-15.8-11.39-29.32-26.56-40.2-45.08c-21.3-36.25-30.37-82.01-25.54-128.84C1451.07,2186.92,1470.23,2133.84,1497.48,2091.79z"/><path d="M2185.54,2147.97c-17.39-8.76-33.14-21.61-46.8-38.18c-26.75-32.44-42.91-76.2-45.52-123.21 c-2.61-47.08,7.8-102.48,27.87-148.18c24.79-56.47,60.32-88.78,100.07-90.99c39.72-2.22,78.72,25.93,109.8,79.26 c25.23,43.29,41.85,97.21,44.47,144.25c2.61,47.01-8.61,92.29-31.6,127.49c-11.74,17.98-25.97,32.49-42.29,43.13l0,0 c-17.66,11.51-36.88,17.91-57.11,19.04C2224.1,2161.69,2204.32,2157.43,2185.54,2147.97z"/><path d="M2545.37,2430.01c-16.18,0-32.24-3.5-47.73-10.41c-17.79-7.93-34.13-20.02-48.55-35.92 c-28.25-31.15-46.47-74.09-51.3-120.92c-4.84-46.9,2.95-102.73,20.83-149.33c22.09-57.58,56.05-91.53,95.65-95.62 c2.67-0.27,5.34-0.41,8.02-0.41c36.97,0,74.11,26.1,105.41,74.38c27.25,42.05,46.41,95.13,51.24,141.98 c4.83,46.83-4.24,92.59-25.54,128.84c-10.88,18.52-24.41,33.68-40.2,45.08c-17.1,12.33-35.99,19.64-56.15,21.72 C2553.17,2429.81,2549.24,2430.01,2545.37,2430.01z"/><path d="M601.82,1498.8c6.32,10.41,13.74,20.35,22.3,29.65c33.84,36.8,79.98,58.22,129.93,60.31 c34.07,1.43,67.13-6.27,96.38-22.04c8.83-5.4,20.22-12.39,27.64-18.28c29.76-18.27,86.05-46.36,144.17-41.14 c89.22,15.95,135.65,87.25,149.51,112.49c16.77,35.27,33.81,92.14,13.72,155.55c-22.41,53.87-73.45,90.65-103.46,108.5 c-8.66,3.82-20.14,10.66-29.03,15.97c-27.57,18.57-49.75,44.25-64.33,75.08c-21.38,45.19-23.87,96.01-7.03,143.08 c4.26,11.9,9.6,23.09,15.88,33.52c45.02,74.78,138.13,110.15,223.4,79.63c77.26-27.65,127.1-101.28,124.01-183.23 c-0.72-19.08-4.38-37.94-10.86-56.04c-10.78-30.12-29.15-57.08-53.15-77.99c-11.47-9.99-28.87-8.79-38.86,2.68 c-9.99,11.47-8.79,28.86,2.67,38.86c16.9,14.73,29.86,33.75,37.47,55.02c4.58,12.8,7.17,26.12,7.68,39.57 c2.18,57.82-33,109.77-87.53,129.29c-33.21,11.89-69.08,10.13-100.97-4.96c-31.89-15.08-56-41.69-67.89-74.9 c-11.89-33.22-10.13-69.07,4.96-100.97c10.33-21.85,26.08-40.05,45.65-53.16c7.63-5.33,17.58-10.19,29.25-14.73 c15.64-6.08,32.22-8.24,48.82-7.69c0.02,0,0.04,0,0.06,0c0.81,0.02,1.61,0.01,2.42-0.04c0.13-0.01,0.25,0,0.38-0.01 c0.7-0.05,1.39-0.14,2.08-0.25c0.22-0.03,0.45-0.05,0.67-0.08c0.36-0.06,0.71-0.16,1.07-0.24c1.32-0.28,2.61-0.64,3.85-1.1 c0.07-0.02,0.14-0.04,0.21-0.07c0.44-0.17,0.86-0.37,1.28-0.56c0.4-0.17,0.8-0.33,1.19-0.53c0.18-0.09,0.35-0.2,0.53-0.29 c3.43-1.8,6.5-4.35,8.97-7.55c0.19-0.24,0.39-0.47,0.57-0.71c0.21-0.29,0.39-0.6,0.59-0.9c0.32-0.48,0.63-0.95,0.92-1.45 c0.02-0.04,0.05-0.08,0.08-0.12l156.21-274.66c159.67-12.83,421.07-35.28,593.21-57.47c94.45-12.17,160.35-54.1,207.38-131.93 c5.22-8.65,5.29-19.46,0.18-28.17c-5.14-8.65-14.58-13.93-24.68-13.59l-657.14,22.01l325.66-572.6c4.99-8.78,4.71-19.6-0.56-28.17 c-5.34-8.58-14.94-13.54-25.03-12.94c-90.78,5.44-158.53,44.28-213.23,122.24c-99.95,142.46-241.86,364.22-327.4,499.52 l-316.95,10.62c-0.05,0-0.1,0.01-0.14,0.01c-0.57,0.02-1.14,0.09-1.71,0.14c-0.36,0.04-0.72,0.05-1.08,0.1 c-0.3,0.04-0.6,0.12-0.9,0.17c-3.99,0.69-7.67,2.23-10.86,4.43c-0.17,0.11-0.34,0.21-0.5,0.33c-0.35,0.25-0.68,0.54-1.02,0.81 c-0.37,0.29-0.74,0.57-1.09,0.87c-0.05,0.05-0.1,0.1-0.15,0.15c-0.99,0.88-1.9,1.86-2.76,2.89c-0.24,0.28-0.48,0.55-0.71,0.83 c-0.14,0.18-0.25,0.37-0.39,0.56c-0.41,0.56-0.81,1.13-1.18,1.73c-0.07,0.11-0.12,0.22-0.19,0.33c-0.42,0.69-0.81,1.39-1.16,2.12 c-0.01,0.02-0.02,0.04-0.03,0.06c-7.23,14.95-16.86,28.63-29.51,39.64c-9.44,8.22-18.38,14.77-26.64,19.04 c-20.71,11.23-44.14,16.71-68.29,15.69c-35.25-1.48-67.81-16.59-91.69-42.56c-23.88-25.97-36.22-59.69-34.74-94.93 c1.48-35.25,16.59-67.81,42.56-91.69c42.63-39.21,104.99-46.19,155.16-17.37c11.67,6.71,22.26,15.18,31.46,25.2 c15.29,16.62,26.1,36.94,31.28,58.76c3.52,14.8,18.36,23.95,33.16,20.44c14.8-3.51,23.95-18.36,20.44-33.16 c-7.35-30.97-22.68-59.77-44.33-83.32c-13.01-14.16-28.01-26.16-44.57-35.67c-71.12-40.84-159.48-30.96-219.88,24.59 C568.54,1325.3,556.55,1424.17,601.82,1498.8z M1261.07,1501.21c18.29-11.01,42.05-5.11,53.06,13.18 c11.01,18.29,5.1,42.05-13.19,53.06c-18.29,11.01-42.04,5.11-53.06-13.18C1236.88,1535.98,1242.79,1512.22,1261.07,1501.21z"/><path d="M2660.31,1802.17c-9.64-11.74-7.94-29.06,3.79-38.71l129.93-106.75l-25.93-31.56l-129.93,106.75 c-4.32,3.55-9.4,5.56-14.58,6.1c-8.88,0.93-18.04-2.48-24.13-9.89c-9.64-11.74-7.94-29.06,3.79-38.71l129.93-106.75l-25.53-31.07 l-129.93,106.75c-4.32,3.55-9.4,5.56-14.58,6.1c-8.88,0.93-18.04-2.48-24.13-9.89c-9.64-11.73-7.94-29.06,3.79-38.71l129.93-106.75 l-25.93-31.56l-129.93,106.75c-4.32,3.55-9.4,5.56-14.58,6.1c-8.88,0.93-18.04-2.48-24.13-9.89c-9.64-11.74-7.94-29.06,3.79-38.71 l129.93-106.75l-25.53-31.07l-129.93,106.75c-4.32,3.55-9.4,5.56-14.58,6.1c-8.88,0.93-18.04-2.48-24.13-9.89 c-9.64-11.74-7.94-29.06,3.79-38.71l129.93-106.75l-25.93-31.56l-129.93,106.75c-4.32,3.55-9.4,5.56-14.58,6.1 c-8.88,0.93-18.04-2.48-24.13-9.89c-9.64-11.74-7.94-29.06,3.79-38.71l129.93-106.75l-25.93-31.56l-129.93,106.75 c-4.32,3.55-9.4,5.56-14.58,6.1c-8.88,0.93-18.04-2.48-24.13-9.89c-9.64-11.74-7.94-29.06,3.79-38.71l129.93-106.75l-25.93-31.56 l-129.93,106.75c-4.32,3.55-9.4,5.56-14.58,6.1c-8.88,0.93-18.04-2.48-24.13-9.89c-9.64-11.74-7.94-29.06,3.79-38.71l129.93-106.75 l-25.53-31.07l-129.93,106.75c-4.32,3.55-9.4,5.56-14.58,6.1c-8.88,0.93-18.04-2.48-24.13-9.89c-9.64-11.74-7.94-29.06,3.79-38.71 l129.93-106.75l-24.37-29.67l-129.93,106.75c-11.74,9.64-29.06,7.95-38.71-3.79c-18.61-22.65-26.12-50.88-21.15-79.48 c4.57-26.31,19.37-50.89,41.67-69.21L2256.89,891c25.26-20.76,55.78-31.24,85.92-29.53c31.48,1.79,60.3,16.75,81.15,42.14 l830.44,1010.76c20.9,25.44,29.56,56.8,24.39,88.3c-4.83,29.39-21.39,57-46.64,77.75l-120.91,99.34 c-18.75,15.41-40.52,24.79-62.4,27.07c-4.13,0.43-8.27,0.61-12.39,0.53c-28.35-0.57-54.22-13.36-72.84-36.03 c-4.63-5.64-6.83-12.88-6.12-20.14c0.71-7.26,4.28-13.94,9.91-18.57l129.93-106.75l-25.4-30.92l-129.93,106.75 c-4.32,3.55-9.4,5.56-14.58,6.1c-8.88,0.93-18.04-2.48-24.13-9.89c-9.64-11.74-7.94-29.06,3.79-38.71l129.93-106.75l-25.93-31.56 l-129.93,106.75c-4.32,3.55-9.4,5.56-14.58,6.1c-8.88,0.93-18.04-2.48-24.13-9.89c-9.64-11.73-7.94-29.06,3.79-38.71l129.93-106.75 l-25.53-31.07l-129.93,106.75c-4.32,3.55-9.4,5.56-14.58,6.1c-8.88,0.93-18.04-2.48-24.13-9.9c-9.64-11.74-7.94-29.06,3.79-38.71 l129.93-106.75l-25.93-31.56l-129.93,106.75c-4.32,3.55-9.4,5.56-14.58,6.1c-8.88,0.93-18.04-2.48-24.13-9.89 c-9.64-11.74-7.94-29.06,3.79-38.71l129.93-106.75l-25.93-31.56l-129.93,106.75c-4.32,3.55-9.4,5.56-14.58,6.1 C2675.56,1812.99,2666.4,1809.58,2660.31,1802.17z"/><path d="M1008.56,2614.79c16.07-1.17,62.79-10.14,85.62-37.32c24.31-28.92,31.92-89.55,32.8-110.44 c0.64-16.2,13.81-29.07,30.02-29.35c0.18,0,0.36,0,0.55,0c15.97,0,29.29,12.33,30.49,28.31c1.62,21.7,10.76,84.1,33.24,111.95 c20.63,25.56,69.03,35.31,85.86,36.9c16.14,1.45,28.47,15.22,27.96,31.42c-0.51,16.17-13.4,29.14-29.57,29.6 c-2.02,0.1-56.63,3.24-84.43,37.02c-25.24,30.67-32.37,90.05-32.98,110.3c-0.45,16.57-14.02,29.77-30.57,29.77 c-0.07,0-0.15,0-0.23,0c-16.65-0.12-30.14-13.51-30.36-30.16c-0.33-20.11-6.84-79.01-32.71-109.6 c-29.18-34.49-83.52-37.29-84.68-37.34c-16.25-0.58-29.25-13.78-29.53-30.04C979.77,2629.52,992.29,2615.87,1008.56,2614.79z"/><path d="M2791.14,2676.6c21.68-1.57,84.7-13.68,115.51-50.34c32.79-39.02,43.06-120.81,44.24-148.98 c0.86-21.85,18.63-39.21,40.5-39.6c0.25,0,0.49-0.01,0.74-0.01c21.54,0,39.51,16.63,41.13,38.19 c2.19,29.27,14.52,113.45,44.84,151.02c27.83,34.48,93.11,47.63,115.82,49.78c21.77,1.95,38.41,20.54,37.72,42.38 c-0.69,21.82-18.08,39.31-39.89,39.93c-2.72,0.14-76.39,4.37-113.9,49.95c-34.05,41.37-43.67,121.48-44.5,148.8 c-0.61,22.35-18.91,40.16-41.23,40.16c-0.1,0-0.2,0-0.3,0c-22.46-0.16-40.66-18.23-40.95-40.69 c-0.44-27.13-9.23-106.59-44.13-147.84c-39.36-46.53-112.67-50.3-114.23-50.37c-21.92-0.79-39.46-18.59-39.83-40.53 C2752.3,2696.46,2769.19,2678.05,2791.14,2676.6z"/><circle cx="2538.29" cy="3045.57" r="47.68" transform="rotate(-67.5 2538.249 3045.503)"/><circle cx="1318.92" cy="2937.85" r="60.05" transform="rotate(-76.714 1319.104 2938.022)"/><circle cx="1156.32" cy="995.39" r="45.91" transform="rotate(-58.286 1156.215 995.345)"/><circle cx="3154.29" cy="1139.86" r="77.37" transform="rotate(-45.001 3154.29 1139.898)"/></g></svg>