<?xml version="1.0" encoding="UTF-8" standalone="no"?><svg xmlns="http://www.w3.org/2000/svg" xmlns:xlink="http://www.w3.org/1999/xlink" data-name="Layer 1" fill="#ffffff" height="485.7" preserveAspectRatio="xMidYMid meet" version="1" viewBox="57.8 15.8 399.5 485.7" width="399.5" zoomAndPan="magnify"><g id="change1_1"><path d="M256,16A115.629,115.629,0,0,1,371.629,131.629c0,.267-.008.533-.01.8L256.8,247.248c-.267,0-.532.01-.8.01A115.629,115.629,0,1,1,256,16ZM201.663,322.183l17.906-17.9,44.568,44.568-17.906,17.9a5.01,5.01,0,0,1-7.071,0l-37.5-37.5a5.01,5.01,0,0,1,0-7.071Zm27.8-27.8,44.568,44.568L445.027,167.955a31.514,31.514,0,0,0-44.568-44.567L229.467,294.379ZM416.656,141.861l-70.268,70.268a7,7,0,0,0,9.9,9.9l70.268-70.268a7,7,0,1,0-9.9-9.9ZM223.593,370.982l-26.161-26.161L57.782,484.471c15.608,15.608,63.618,17.054,86.865-6.193L193.13,429.8c1.04-1.04,1.118-24.182,1.972-30.322l28.491-28.491Zm6.786-305.559v40.585H189.8V157.25h40.584v40.585h51.242V157.25h40.585V106.008H281.621V65.423Z" fill-rule="evenodd"/></g></svg>